<svg xmlns="http://www.w3.org/2000/svg" xmlns:xlink="http://www.w3.org/1999/xlink" width="200" zoomAndPan="magnify" viewBox="0 0 150 44.999999" height="60" preserveAspectRatio="xMidYMid meet" version="1.0"><defs><g/><clipPath id="df045e000a"><path d="M 24.253906 9 L 25 9 L 25 31 L 24.253906 31 Z M 24.253906 9 " clip-rule="nonzero"/></clipPath><clipPath id="234336ef92"><path d="M 25 8.539062 L 47 8.539062 L 47 9 L 25 9 Z M 25 8.539062 " clip-rule="nonzero"/></clipPath><clipPath id="4ceb7f1d13"><path d="M 46 8.539062 L 47.6875 8.539062 L 47.6875 10 L 46 10 Z M 46 8.539062 " clip-rule="nonzero"/></clipPath><clipPath id="3d7c1d17f7"><path d="M 24.253906 8.539062 L 26 8.539062 L 26 10 L 24.253906 10 Z M 24.253906 8.539062 " clip-rule="nonzero"/></clipPath><clipPath id="5525e0e53e"><path d="M 46 30 L 47.6875 30 L 47.6875 31.972656 L 46 31.972656 Z M 46 30 " clip-rule="nonzero"/></clipPath><clipPath id="6838fdc814"><path d="M 24.253906 30 L 26 30 L 26 31.972656 L 24.253906 31.972656 Z M 24.253906 30 " clip-rule="nonzero"/></clipPath><clipPath id="8c38a429a3"><path d="M 23.355469 7.640625 L 48.585938 7.640625 L 48.585938 32.871094 L 23.355469 32.871094 Z M 23.355469 7.640625 " clip-rule="nonzero"/></clipPath><clipPath id="56631a73c2"><path d="M 39 15 L 45 15 L 45 26 L 39 26 Z M 39 15 " clip-rule="nonzero"/></clipPath><clipPath id="6ba191f376"><path d="M 44.679688 15.050781 L 49.984375 20.351562 L 44.679688 25.65625 L 39.378906 20.351562 Z M 44.679688 15.050781 " clip-rule="nonzero"/></clipPath><clipPath id="0e86bcd74f"><path d="M 44.679688 15.050781 L 49.984375 20.351562 L 44.679688 25.65625 L 39.378906 20.351562 Z M 44.679688 15.050781 " clip-rule="nonzero"/></clipPath></defs><g clip-path="url(#df045e000a)"><path fill="#ffffff" d="M 23.363281 9.984375 L 24.125 9.984375 L 24.125 30.8125 L 23.363281 30.8125 Z M 23.363281 9.984375 " fill-opacity="1" fill-rule="nonzero"/></g><g clip-path="url(#234336ef92)"><path fill="#ffffff" d="M 25.699219 7.648438 L 46.523438 7.648438 L 46.523438 8.410156 L 25.699219 8.410156 Z M 25.699219 7.648438 " fill-opacity="1" fill-rule="nonzero"/></g><g clip-path="url(#4ceb7f1d13)"><path fill="#ffffff" d="M 48.101562 8.410156 L 48.101562 9.984375 L 48.863281 9.984375 L 48.863281 7.648438 L 46.523438 7.648438 L 46.523438 8.410156 Z M 48.101562 8.410156 " fill-opacity="1" fill-rule="nonzero"/></g><g clip-path="url(#3d7c1d17f7)"><path fill="#ffffff" d="M 24.125 8.410156 L 25.699219 8.410156 L 25.699219 7.648438 L 23.363281 7.648438 L 23.363281 9.984375 L 24.125 9.984375 Z M 24.125 8.410156 " fill-opacity="1" fill-rule="nonzero"/></g><g clip-path="url(#5525e0e53e)"><path fill="#ffffff" d="M 48.101562 32.386719 L 46.523438 32.386719 L 46.523438 33.148438 L 48.863281 33.148438 L 48.863281 30.8125 L 48.101562 30.8125 Z M 48.101562 32.386719 " fill-opacity="1" fill-rule="nonzero"/></g><g clip-path="url(#6838fdc814)"><path fill="#ffffff" d="M 24.125 32.386719 L 24.125 30.8125 L 23.363281 30.8125 L 23.363281 33.148438 L 25.699219 33.148438 L 25.699219 32.386719 Z M 24.125 32.386719 " fill-opacity="1" fill-rule="nonzero"/></g><g clip-path="url(#8c38a429a3)"><path stroke-linecap="butt" transform="matrix(0.75, 0, 0, 0.75, 23.353713, 7.639751)" fill="none" stroke-linejoin="miter" d="M 0.00234093 0.00116529 L 0.00234093 33.641792 L 33.642968 33.641792 L 33.642968 0.00116529 L 0.00234093 0.00116529 " stroke="#000000" stroke-width="4" stroke-opacity="1" stroke-miterlimit="4"/></g><g clip-path="url(#56631a73c2)"><g clip-path="url(#6ba191f376)"><g clip-path="url(#0e86bcd74f)"><path fill="#ff3131" d="M 44.664062 15.324219 L 39.71875 20.269531 L 44.664062 25.214844 Z M 44.664062 15.324219 " fill-opacity="1" fill-rule="nonzero"/><path fill="#ff3131" d="M 44.550781 25.328125 L 39.605469 20.382812 C 39.523438 20.300781 39.523438 20.203125 39.589844 20.140625 L 44.535156 15.195312 C 44.582031 15.148438 44.664062 15.128906 44.730469 15.164062 C 44.792969 15.164062 44.84375 15.246094 44.84375 15.308594 L 44.84375 25.199219 C 44.84375 25.261719 44.808594 25.328125 44.746094 25.359375 C 44.664062 25.375 44.597656 25.375 44.550781 25.328125 Z M 39.964844 20.253906 L 44.484375 24.777344 L 44.484375 15.730469 Z M 39.964844 20.253906 " fill-opacity="1" fill-rule="nonzero"/></g></g></g><g fill="#000000" fill-opacity="1"><g transform="translate(28.034746, 28.111681)"><g><path d="M 9.90625 -13.984375 L 13.40625 -13.984375 L 8.34375 -8.4375 L 13.796875 0 L 10.296875 0 L 6.390625 -6.453125 L 4.28125 -4.21875 L 4.28125 0 L 1.46875 0 L 1.46875 -13.984375 L 4.28125 -13.984375 L 4.28125 -7.765625 Z M 9.90625 -13.984375 "/></g></g></g><g fill="#000000" fill-opacity="1"><g transform="translate(41.885188, 28.111681)"><g/></g></g><g fill="#000000" fill-opacity="1"><g transform="translate(46.766705, 28.111681)"><g/></g></g><g fill="#000000" fill-opacity="1"><g transform="translate(51.652992, 28.111681)"><g><path d="M 9.90625 -13.984375 L 13.40625 -13.984375 L 8.34375 -8.4375 L 13.796875 0 L 10.296875 0 L 6.390625 -6.453125 L 4.28125 -4.21875 L 4.28125 0 L 1.46875 0 L 1.46875 -13.984375 L 4.28125 -13.984375 L 4.28125 -7.765625 Z M 9.90625 -13.984375 "/></g></g></g><g fill="#000000" fill-opacity="1"><g transform="translate(65.496671, 28.111681)"><g><path d="M 0.84375 -6.921875 C 0.84375 -8.390625 1.117188 -9.671875 1.671875 -10.765625 C 2.234375 -11.867188 3.023438 -12.71875 4.046875 -13.3125 C 5.078125 -13.914062 6.28125 -14.21875 7.65625 -14.21875 C 9.039062 -14.21875 10.242188 -13.914062 11.265625 -13.3125 C 12.296875 -12.71875 13.09375 -11.875 13.65625 -10.78125 C 14.21875 -9.6875 14.5 -8.414062 14.5 -6.96875 C 14.5 -5.5625 14.222656 -4.3125 13.671875 -3.21875 C 13.117188 -2.125 12.332031 -1.273438 11.3125 -0.671875 C 10.289062 -0.0664062 9.085938 0.234375 7.703125 0.234375 C 6.304688 0.234375 5.09375 -0.0625 4.0625 -0.65625 C 3.03125 -1.257812 2.234375 -2.101562 1.671875 -3.1875 C 1.117188 -4.269531 0.84375 -5.515625 0.84375 -6.921875 Z M 7.65625 -11.796875 C 6.851562 -11.796875 6.15625 -11.585938 5.5625 -11.171875 C 4.976562 -10.765625 4.53125 -10.195312 4.21875 -9.46875 C 3.90625 -8.75 3.75 -7.921875 3.75 -6.984375 C 3.75 -6.054688 3.898438 -5.226562 4.203125 -4.5 C 4.515625 -3.78125 4.96875 -3.210938 5.5625 -2.796875 C 6.15625 -2.390625 6.859375 -2.1875 7.671875 -2.1875 C 8.484375 -2.1875 9.179688 -2.390625 9.765625 -2.796875 C 10.359375 -3.203125 10.804688 -3.769531 11.109375 -4.5 C 11.421875 -5.226562 11.578125 -6.070312 11.578125 -7.03125 C 11.578125 -7.945312 11.421875 -8.765625 11.109375 -9.484375 C 10.804688 -10.203125 10.359375 -10.765625 9.765625 -11.171875 C 9.179688 -11.585938 8.476562 -11.796875 7.65625 -11.796875 Z M 7.65625 -11.796875 "/></g></g></g><g fill="#000000" fill-opacity="1"><g transform="translate(80.827687, 28.111681)"><g><path d="M 0.84375 -6.921875 C 0.84375 -8.390625 1.117188 -9.671875 1.671875 -10.765625 C 2.234375 -11.867188 3.023438 -12.71875 4.046875 -13.3125 C 5.078125 -13.914062 6.28125 -14.21875 7.65625 -14.21875 C 9.039062 -14.21875 10.242188 -13.914062 11.265625 -13.3125 C 12.296875 -12.71875 13.09375 -11.875 13.65625 -10.78125 C 14.21875 -9.6875 14.5 -8.414062 14.5 -6.96875 C 14.5 -5.5625 14.222656 -4.3125 13.671875 -3.21875 C 13.117188 -2.125 12.332031 -1.273438 11.3125 -0.671875 C 10.289062 -0.0664062 9.085938 0.234375 7.703125 0.234375 C 6.304688 0.234375 5.09375 -0.0625 4.0625 -0.65625 C 3.03125 -1.257812 2.234375 -2.101562 1.671875 -3.1875 C 1.117188 -4.269531 0.84375 -5.515625 0.84375 -6.921875 Z M 7.65625 -11.796875 C 6.851562 -11.796875 6.15625 -11.585938 5.5625 -11.171875 C 4.976562 -10.765625 4.53125 -10.195312 4.21875 -9.46875 C 3.90625 -8.75 3.75 -7.921875 3.75 -6.984375 C 3.75 -6.054688 3.898438 -5.226562 4.203125 -4.5 C 4.515625 -3.78125 4.96875 -3.210938 5.5625 -2.796875 C 6.15625 -2.390625 6.859375 -2.1875 7.671875 -2.1875 C 8.484375 -2.1875 9.179688 -2.390625 9.765625 -2.796875 C 10.359375 -3.203125 10.804688 -3.769531 11.109375 -4.5 C 11.421875 -5.226562 11.578125 -6.070312 11.578125 -7.03125 C 11.578125 -7.945312 11.421875 -8.765625 11.109375 -9.484375 C 10.804688 -10.203125 10.359375 -10.765625 9.765625 -11.171875 C 9.179688 -11.585938 8.476562 -11.796875 7.65625 -11.796875 Z M 7.65625 -11.796875 "/></g></g></g><g fill="#000000" fill-opacity="1"><g transform="translate(96.158704, 28.111681)"><g><path d="M 9.90625 -13.984375 L 13.40625 -13.984375 L 8.34375 -8.4375 L 13.796875 0 L 10.296875 0 L 6.390625 -6.453125 L 4.28125 -4.21875 L 4.28125 0 L 1.46875 0 L 1.46875 -13.984375 L 4.28125 -13.984375 L 4.28125 -7.765625 Z M 9.90625 -13.984375 "/></g></g></g><g fill="#000000" fill-opacity="1"><g transform="translate(110.002383, 28.111681)"><g><path d="M 4.28125 -11.609375 L 4.28125 -8.421875 L 10.15625 -8.421875 L 10.15625 -6.0625 L 4.28125 -6.0625 L 4.28125 -2.359375 L 11.015625 -2.359375 L 11.015625 0 L 1.46875 0 L 1.46875 -13.984375 L 10.6875 -13.984375 L 10.6875 -11.609375 Z M 4.28125 -11.609375 "/></g></g></g></svg>